<svg xmlns="http://www.w3.org/2000/svg" version="1.1" xmlns:xlink="http://www.w3.org/1999/xlink" xmlns:svgjs="http://svgjs.dev/svgjs" width="1000" height="625" viewBox="0 0 1000 625"><g transform="matrix(1,0,0,1,0,0)"><svg viewBox="0 0 512 320" data-background-color="#ffffff" preserveAspectRatio="xMidYMid meet" height="625" width="1000" xmlns="http://www.w3.org/2000/svg" xmlns:xlink="http://www.w3.org/1999/xlink"><g id="tight-bounds" transform="matrix(1,0,0,1,0,0)"><svg viewBox="0 0 512 320" height="320" width="512"><g><svg></svg></g><g><svg viewBox="0 0 512 320" height="320" width="512"><g><path xmlns="http://www.w3.org/2000/svg" d="M152.026 320l-64.26-197.771 168.234-122.229 168.234 122.229-64.26 197.771z" fill="#ed2647" fill-rule="nonzero" stroke="none" stroke-width="1" stroke-linecap="butt" stroke-linejoin="miter" stroke-miterlimit="10" stroke-dasharray="" stroke-dashoffset="0" font-family="none" font-weight="none" font-size="none" text-anchor="none" style="mix-blend-mode: normal" data-fill-palette-color="tertiary"></path></g><g transform="matrix(1,0,0,1,181.61282149248927,80)"><svg viewBox="0 0 148.77435701502142 160" height="160" width="148.77435701502142"><g><svg viewBox="0 0 148.77435701502142 160" height="160" width="148.77435701502142"><g><svg viewBox="0 0 148.77435701502142 160" height="160" width="148.77435701502142"><g><svg viewBox="0 0 148.77435701502142 160" height="160" width="148.77435701502142"><g id="textblocktransform"><svg viewBox="0 0 148.77435701502142 160" height="160" width="148.77435701502142" id="textblock"><g><svg viewBox="0 0 148.77435701502142 160" height="160" width="148.77435701502142"><g transform="matrix(1,0,0,1,0,0)"><svg width="148.77435701502142" viewBox="1.6100000143051147 -37.650001525878906 35.279998779296875 37.941139221191406" height="160" data-palette-color="#ffffff"><path d="M36.89 0L29.59 0 29.59-6.35Q28.08-3.69 26.64-2.44 25.2-1.2 23.38-0.44 21.56 0.32 18.51 0.29L18.51 0.29Q16.99 0.27 15.48-0.06 13.96-0.39 12.55-0.99 11.13-1.59 9.78-2.43 8.42-3.27 7.32-4.37L7.32-4.37Q4.61-7.1 3.11-10.71 1.61-14.31 1.61-18.55L1.61-18.55Q1.61-21.17 2.25-23.61 2.88-26.05 4.03-28.17 5.18-30.3 6.8-32.04 8.42-33.79 10.41-35.03 12.4-36.28 14.7-36.96 16.99-37.65 19.51-37.65L19.51-37.65Q22.39-37.65 24.51-36.88 26.64-36.11 29.08-34.01L29.08-34.01 34.55-34.01 34.55-25.76 27-25.76Q25.88-27.49 24.89-28.27 23.9-29.05 22.74-29.57 21.58-30.08 19.51-30.08L19.51-30.08Q17.46-30.08 15.7-29.15 13.94-28.22 12.66-26.65 11.38-25.07 10.64-22.94 9.91-20.8 9.91-18.55L9.91-18.55Q9.91-16.33 10.57-14.33 11.23-12.33 12.57-10.73 13.92-9.13 15.7-8.28 17.48-7.42 19.51-7.42L19.51-7.42Q22.09-7.42 24.02-8.94 25.95-10.45 26.81-13.06L26.81-13.06 19.75-13.06 19.75-19.75 36.89-19.75 36.89 0Z" opacity="1" transform="matrix(1,0,0,1,0,0)" fill="#ffffff" class="wordmark-text-0" data-fill-palette-color="quaternary" id="text-0"></path></svg></g></svg></g></svg></g></svg></g></svg></g></svg></g></svg></g></svg></g><defs></defs></svg><rect width="512" height="320" fill="none" stroke="none" visibility="hidden"></rect></g></svg></g></svg>